<?xml version="1.0" standalone="no"?>
<!DOCTYPE svg PUBLIC "-//W3C//DTD SVG 20010904//EN"
 "http://www.w3.org/TR/2001/REC-SVG-20010904/DTD/svg10.dtd">
<svg version="1.0" xmlns="http://www.w3.org/2000/svg"
 width="723.000000pt" height="723.000000pt" viewBox="0 0 723.000000 723.000000"
 preserveAspectRatio="xMidYMid meet">
<metadata>
Created by potrace 1.11, written by Peter Selinger 2001-2013
</metadata>
<g transform="translate(0.000000,723.000000) scale(0.100000,-0.100000)"
fill="#000000" stroke="none">
<path d="M5 7218 c-3 -7 -4 -1633 -3 -3613 l3 -3600 3610 0 3610 0 0 3610 0
3610 -3608 3 c-2881 2 -3609 0 -3612 -10z m7195 -3603 l0 -3585 -3585 0 -3585
0 0 3585 0 3585 3585 0 3585 0 0 -3585z"/>
<path d="M2641 6508 c3 -73 1 -78 -25 -78 -14 0 -28 -4 -31 -10 -3 -6 5 -10
19 -10 13 0 36 -4 50 -10 22 -8 26 -16 26 -48 0 -21 -3 -42 -6 -45 -4 -3 -8
-53 -10 -109 l-3 -103 -36 -28 c-32 -26 -35 -33 -35 -80 0 -53 13 -98 43 -154
27 -51 22 -66 -48 -121 -38 -31 -67 -63 -71 -78 -9 -35 13 -197 36 -264 10
-30 26 -80 34 -110 9 -30 29 -84 45 -120 33 -76 49 -138 57 -224 10 -110 43
-228 90 -314 l44 -84 -5 -119 c-2 -66 -9 -128 -14 -138 -6 -10 -16 -51 -22
-92 -6 -40 -20 -90 -32 -112 -20 -39 -20 -40 -1 -54 21 -15 55 -10 91 13 29
18 46 82 45 164 -1 49 7 87 30 155 18 50 35 92 39 95 3 3 24 43 45 89 l38 84
58 -118 c32 -65 58 -126 58 -137 0 -10 12 -46 26 -81 14 -34 29 -82 32 -107 6
-36 12 -46 29 -48 33 -5 57 48 48 104 -5 36 -3 44 9 44 8 0 20 -9 26 -20 6
-11 16 -18 21 -14 6 4 4 13 -6 24 -9 10 -20 34 -26 54 -7 24 -20 41 -39 51
-36 18 -55 60 -65 140 -10 87 -38 151 -98 230 -64 85 -130 247 -121 294 4 17
3 60 -1 95 -8 79 -33 109 -106 126 -69 17 -80 40 -63 133 13 67 47 141 77 166
12 10 26 2 78 -44 35 -30 114 -89 175 -130 61 -41 117 -81 124 -90 28 -34 49
-37 98 -15 26 12 54 26 62 31 8 5 22 12 30 16 8 3 28 15 43 26 20 13 47 20 85
21 69 1 138 35 294 142 58 41 109 74 112 74 3 0 27 -42 52 -92 26 -51 51 -96
56 -99 10 -7 0 -39 -13 -39 -5 0 -9 -8 -9 -18 0 -10 -6 -26 -13 -37 -26 -39
-68 -163 -81 -241 -24 -134 -155 -667 -165 -674 -6 -3 -21 -31 -35 -61 -14
-34 -39 -68 -62 -86 -26 -21 -35 -35 -31 -46 9 -25 74 -22 117 5 25 15 54 22
98 24 87 3 93 10 91 108 -1 75 2 88 43 186 48 111 73 182 113 320 13 47 42
120 64 164 38 78 39 79 54 55 8 -13 32 -80 52 -149 63 -210 230 -602 260 -608
9 -2 24 3 34 12 15 14 21 13 65 -8 27 -13 57 -34 66 -46 10 -13 31 -23 58 -27
58 -8 63 13 16 73 -41 55 -116 206 -135 274 -7 25 -30 83 -51 129 -21 46 -38
94 -38 106 0 12 -9 33 -19 47 -11 13 -26 62 -35 108 -25 132 -46 223 -55 235
-9 10 -16 68 -27 215 -5 73 -5 76 31 133 25 38 42 56 51 53 16 -6 54 27 54 47
-1 6 -7 30 -15 52 -8 22 -15 48 -15 57 0 9 -3 18 -7 20 -5 2 -20 22 -35 45
-15 23 -43 49 -62 58 -19 9 -53 39 -76 67 -47 55 -47 55 -160 30 -25 -6 -48
-7 -53 -3 -4 4 -10 31 -13 61 -2 29 -9 61 -15 71 -16 31 -56 51 -104 51 -55 1
-96 -32 -114 -93 -13 -42 -2 -96 26 -130 7 -8 13 -23 13 -33 0 -9 9 -27 21
-39 l21 -22 -49 -44 c-86 -79 -210 -181 -219 -181 -5 0 -35 -19 -66 -42 -31
-24 -80 -51 -108 -61 -27 -10 -50 -23 -50 -28 0 -6 11 -24 25 -41 14 -16 25
-35 25 -41 0 -7 -12 3 -26 21 -24 30 -30 32 -85 32 -32 0 -60 -3 -60 -7 -1 -5
-2 -23 -3 -41 -3 -48 -26 -67 -64 -54 -56 19 -205 148 -290 249 -45 55 -93
105 -106 112 -33 18 -91 90 -100 124 -5 23 -3 29 18 37 18 6 26 19 31 49 9 52
0 79 -27 83 -15 2 -24 13 -30 35 -5 17 -19 40 -32 50 -18 14 -24 32 -30 83 -4
36 -9 81 -11 100 -2 19 -9 69 -15 110 -9 64 -9 79 5 102 9 15 11 29 6 32 -5 4
-12 -3 -16 -14 -10 -32 -25 -23 -25 15 0 19 -4 35 -10 35 -5 0 -10 -12 -10
-26 0 -14 -4 -23 -10 -19 -5 3 -10 17 -10 31 0 15 -6 24 -15 24 -12 0 -15 -10
-14 -42z m1656 -708 c41 -89 42 -282 3 -386 -9 -24 -11 -24 -38 -10 -22 11
-39 39 -76 123 -26 59 -58 145 -71 190 l-23 83 43 19 c46 20 65 45 65 82 0 22
2 21 36 -12 20 -18 48 -59 61 -89z m153 -98 c0 -15 -2 -15 -10 -2 -13 20 -13
33 0 25 6 -3 10 -14 10 -23z m107 -54 c-3 -7 -5 -2 -5 12 0 14 2 19 5 13 2 -7
2 -19 0 -25z"/>
<path d="M1494 3916 c-239 -55 -390 -258 -355 -477 26 -161 133 -282 301 -340
93 -32 256 -33 356 -1 107 33 209 108 257 188 4 7 -13 25 -43 44 l-49 32 -53
-54 c-64 -65 -125 -96 -217 -111 -168 -26 -331 47 -395 175 -21 42 -26 66 -26
127 0 130 61 220 189 280 50 23 68 26 166 26 102 0 114 -2 175 -31 36 -17 82
-48 102 -68 l38 -37 45 31 c25 17 45 37 45 45 0 18 -85 92 -135 117 -116 60
-279 82 -401 54z"/>
<path d="M559 3848 c-17 -35 -110 -217 -206 -405 l-174 -343 68 0 69 0 49 100
49 100 216 0 216 0 49 -100 49 -100 68 0 c37 0 68 2 68 4 0 2 -40 82 -89 177
-49 96 -141 275 -205 399 l-115 225 -40 3 c-40 3 -40 3 -72 -60z m149 -283
c39 -80 72 -147 72 -150 0 -3 -67 -5 -150 -5 -82 0 -150 3 -150 6 0 11 145
294 150 294 3 0 38 -65 78 -145z"/>
<path d="M2363 3512 c-112 -220 -203 -402 -203 -406 0 -3 29 -6 65 -6 l65 0
50 100 50 100 215 0 215 0 50 -100 50 -100 69 0 68 0 -116 228 c-64 125 -156
306 -206 402 l-90 175 -40 3 -40 2 -202 -398z m322 48 l75 -150 -156 0 c-86 0
-154 3 -152 8 17 40 150 292 153 292 3 0 39 -67 80 -150z"/>
<path d="M3180 3505 l0 -405 223 0 c168 0 237 4 282 15 180 47 281 173 293
361 10 172 -67 308 -217 384 -77 38 -161 50 -378 50 l-203 0 0 -405z m512 252
c132 -65 187 -205 142 -356 -20 -70 -90 -142 -160 -164 -42 -14 -195 -22 -346
-17 -17 0 -18 20 -18 286 l0 286 163 -3 c154 -4 165 -5 219 -32z"/>
<path d="M4180 3505 l0 -405 395 0 396 0 -3 58 -3 57 -328 0 -327 0 0 128 0
127 205 0 205 0 0 60 0 60 -205 0 -205 0 0 100 0 100 315 0 315 0 0 60 0 60
-380 0 -380 0 0 -405z"/>
<path d="M5160 3501 l0 -401 60 0 60 0 2 289 3 289 150 -219 c83 -120 152
-219 155 -219 3 0 73 99 155 219 l150 219 3 -289 2 -289 60 0 60 0 0 401 0
400 -52 -3 -51 -3 -119 -170 c-65 -93 -139 -198 -164 -233 l-45 -64 -27 39
c-15 22 -67 97 -117 168 -49 70 -111 158 -136 194 -45 66 -45 66 -97 69 l-52
3 0 -400z"/>
<path d="M6235 3838 c32 -35 114 -122 182 -194 l123 -131 0 -207 0 -206 60 0
60 0 0 209 0 210 102 108 c55 59 134 142 175 184 40 42 73 79 73 83 0 3 -35 6
-77 5 l-78 -1 -125 -139 c-69 -76 -128 -139 -132 -139 -3 0 -64 63 -135 140
l-128 140 -79 0 -78 0 57 -62z"/>
<path d="M2415 2818 c-53 -12 -85 -43 -85 -84 0 -71 17 -82 143 -94 103 -10
135 -29 123 -74 -14 -57 -111 -72 -208 -32 l-56 23 -10 -23 c-10 -20 -7 -24
37 -43 63 -27 145 -36 198 -22 86 23 123 118 67 174 -27 28 -44 32 -156 42
-69 7 -92 21 -86 52 8 43 88 54 170 23 38 -14 55 -17 65 -9 22 19 15 29 -29
48 -54 23 -122 31 -173 19z"/>
<path d="M3322 2819 c-177 -34 -217 -250 -61 -329 160 -82 353 29 323 185 -19
103 -137 168 -262 144z m110 -49 c53 -15 98 -70 98 -121 0 -57 -23 -94 -73
-118 -54 -26 -109 -27 -162 -1 -80 39 -101 130 -44 195 44 50 106 65 181 45z"/>
<path d="M4815 2818 c-53 -12 -85 -43 -85 -84 0 -71 17 -82 143 -94 103 -10
135 -29 123 -74 -14 -57 -111 -72 -208 -32 l-56 23 -10 -23 c-10 -20 -7 -24
36 -42 104 -44 200 -40 257 10 30 25 35 37 35 73 0 32 -6 48 -26 68 -27 28
-44 32 -156 42 -69 7 -92 21 -86 52 8 43 88 54 170 23 38 -14 55 -17 65 -9 22
19 15 29 -29 48 -54 23 -122 31 -173 19z"/>
<path d="M6681 2819 c-96 -18 -153 -86 -153 -181 0 -121 130 -202 272 -168
167 40 200 255 50 327 -55 26 -111 33 -169 22z m148 -65 c87 -52 80 -183 -12
-225 -54 -24 -110 -24 -162 1 -80 39 -101 130 -44 195 17 19 45 39 63 45 42
13 120 5 155 -16z"/>
<path d="M262 2812 l-23 -4 3 -166 3 -167 105 1 c128 1 178 21 210 84 50 99
-4 229 -103 244 -43 7 -166 12 -195 8z m234 -84 c27 -30 34 -46 34 -78 0 -93
-47 -130 -165 -130 l-75 0 0 126 0 126 86 -3 c84 -4 86 -5 120 -41z"/>
<path d="M1057 2814 c-4 -4 -7 -83 -7 -176 0 -161 1 -168 20 -168 19 0 20 7
20 120 0 66 4 120 8 120 4 0 56 -54 115 -120 60 -66 112 -120 118 -120 5 0 9
70 9 170 0 163 -1 170 -20 170 -19 0 -20 -7 -20 -115 0 -63 -4 -115 -9 -115
-4 0 -41 37 -82 83 -123 137 -144 158 -152 151z"/>
<path d="M1544 2805 c-38 -17 -91 -76 -100 -111 -11 -44 1 -119 25 -151 70
-94 226 -107 321 -26 41 35 41 36 20 50 -20 14 -24 13 -48 -10 -40 -37 -66
-47 -117 -47 -57 0 -121 33 -141 72 -49 94 26 198 142 198 42 0 102 -24 120
-48 12 -16 14 -16 30 0 15 15 15 19 3 34 -40 49 -183 70 -255 39z"/>
<path d="M1949 2812 l-26 -3 1 -167 1 -167 168 -3 167 -2 0 25 0 25 -145 0
-145 0 0 55 0 55 90 0 c89 0 90 0 90 25 0 25 -1 25 -90 25 l-90 0 0 45 0 45
135 0 c127 0 135 1 135 19 0 19 -9 20 -132 23 -73 2 -145 2 -159 0z"/>
<path d="M2750 2646 l0 -176 25 0 c24 0 25 2 25 74 l0 74 123 3 c139 4 170 16
185 72 12 44 1 77 -32 101 -24 19 -44 21 -177 24 l-149 3 0 -175z m291 114
c20 -11 25 -45 9 -70 -7 -12 -33 -15 -127 -15 l-118 0 -3 33 c-6 60 -3 62 113
62 59 0 115 -5 126 -10z"/>
<path d="M3680 2646 l0 -176 25 0 c24 0 25 2 25 75 l0 75 78 0 77 0 49 -75
c38 -59 54 -75 72 -75 13 0 24 3 24 6 0 4 -18 35 -40 70 -22 35 -40 67 -40 71
0 5 14 16 30 25 59 33 62 111 7 152 -25 19 -45 21 -168 24 l-139 4 0 -176z
m271 114 c12 -7 19 -21 19 -40 0 -42 -23 -50 -139 -50 l-101 0 0 50 0 50 101
0 c55 0 109 -5 120 -10z"/>
<path d="M4067 2813 c-4 -3 -7 -15 -7 -25 0 -16 9 -18 75 -18 l75 0 0 -150 0
-150 25 0 25 0 0 150 0 150 75 0 c73 0 75 1 75 25 l0 25 -168 0 c-93 0 -172
-3 -175 -7z"/>
<path d="M5090 2795 c0 -24 2 -25 70 -25 l69 0 3 -147 3 -148 25 0 25 0 3 148
3 147 69 0 c68 0 70 1 70 25 l0 25 -170 0 -170 0 0 -25z"/>
<path d="M5490 2683 c0 -152 8 -179 55 -203 39 -19 178 -20 223 -1 53 22 62
52 62 206 l0 135 -24 0 -24 0 -4 -135 c-4 -165 -5 -168 -113 -173 -68 -4 -76
-2 -99 21 -25 25 -26 30 -26 157 l0 130 -25 0 -25 0 0 -137z"/>
<path d="M5950 2644 l0 -177 114 5 c102 4 118 7 154 30 96 64 97 209 1 281
-35 26 -90 36 -186 37 l-83 0 0 -176z m220 108 c46 -23 73 -74 65 -127 -11
-73 -60 -105 -165 -105 l-70 0 0 125 0 125 68 0 c44 0 79 -6 102 -18z"/>
<path d="M6380 2645 l0 -175 25 0 25 0 0 175 0 175 -25 0 -25 0 0 -175z"/>
<path d="M772 2793 c-5 -10 -44 -84 -86 -164 -42 -80 -76 -149 -76 -153 0 -3
10 -6 23 -6 16 0 28 12 46 45 l24 45 93 0 94 0 20 -39 c18 -37 53 -61 67 -47
4 3 -32 80 -78 171 -85 166 -105 190 -127 148z m58 -113 c16 -33 30 -64 30
-70 0 -6 -27 -10 -65 -10 -36 0 -65 2 -65 5 0 7 64 135 67 135 1 0 16 -27 33
-60z"/>
<path d="M5100 2276 c0 -6 9 -20 21 -32 l20 -21 -30 -31 c-39 -38 -40 -73 -5
-101 32 -25 64 -27 106 -5 22 11 33 13 41 5 6 -6 18 -11 26 -11 11 0 10 4 -4
20 -14 15 -15 23 -6 34 9 11 9 16 0 21 -6 4 -14 2 -18 -4 -5 -7 -27 10 -60 49
l-52 60 45 0 c70 0 55 18 -19 22 -36 2 -65 -1 -65 -6z m114 -157 c-11 -19 -53
-29 -79 -19 -33 13 -35 62 -2 85 21 15 23 14 55 -20 18 -20 30 -40 26 -46z"/>
<path d="M5546 2235 l-66 -56 0 51 c0 27 -4 50 -10 50 -10 0 -11 -15 -11 -105
0 -83 1 -95 11 -95 6 0 10 16 10 36 0 25 7 41 23 55 12 10 25 18 28 19 3 0 23
-25 44 -55 30 -45 43 -55 66 -55 18 0 32 7 39 20 8 15 21 20 55 20 35 0 45 -4
50 -20 3 -11 13 -20 21 -20 10 0 1 24 -29 80 -23 44 -44 80 -47 80 -3 0 -22
-34 -43 -75 -20 -41 -40 -75 -44 -75 -5 0 -27 28 -51 61 l-43 61 38 33 c21 18
35 36 31 40 -3 3 -36 -19 -72 -50z m202 -70 c11 -24 10 -25 -18 -25 -28 0 -29
1 -18 25 6 14 14 25 18 25 4 0 12 -11 18 -25z"/>
<path d="M2160 2180 c0 -82 3 -100 15 -100 11 0 15 12 15 45 l0 45 58 0 c67 0
95 15 95 53 0 48 -18 57 -104 57 l-79 0 0 -100z m157 64 c12 -32 -11 -49 -71
-52 l-56 -3 0 36 0 35 60 0 c47 0 62 -4 67 -16z"/>
<path d="M4038 2180 c26 -55 52 -100 58 -100 6 0 31 45 57 100 55 120 40 137
-18 19 l-40 -80 -40 80 c-21 45 -44 81 -51 81 -7 0 6 -40 34 -100z"/>
<path d="M1670 2160 l0 -80 64 0 c45 0 69 5 80 16 20 19 20 38 2 53 -8 7 -11
22 -8 38 7 36 -20 53 -85 53 l-53 0 0 -80z m104 54 c9 -3 16 -12 16 -20 0 -10
-14 -14 -50 -14 -35 0 -50 4 -50 13 0 8 3 17 7 20 8 9 56 9 77 1z m24 -86 c-3
-20 -10 -23 -55 -26 -51 -3 -53 -2 -53 22 0 25 3 26 56 26 52 0 55 -1 52 -22z"/>
<path d="M1840 2232 c0 -5 14 -21 30 -37 24 -23 30 -37 30 -72 0 -32 4 -43 15
-43 11 0 15 11 15 42 0 34 6 49 32 75 41 43 28 56 -15 15 l-33 -32 -29 30
c-28 30 -45 38 -45 22z"/>
<path d="M2380 2160 c0 -47 4 -80 10 -80 6 0 10 33 10 80 0 47 -4 80 -10 80
-6 0 -10 -33 -10 -80z"/>
<path d="M2460 2160 l0 -80 55 0 c46 0 60 4 80 25 62 61 9 135 -96 135 l-39 0
0 -80z m123 29 c33 -41 0 -89 -62 -89 l-36 0 3 61 4 61 36 -6 c21 -3 45 -15
55 -27z"/>
<path d="M2695 2228 c-52 -28 -61 -89 -19 -129 33 -31 102 -33 133 -5 11 10
18 23 15 28 -3 5 -15 1 -25 -8 -28 -25 -88 -22 -111 6 -25 31 -22 55 9 80 27
21 46 22 101 5 30 -10 28 9 -3 23 -32 15 -74 15 -100 0z"/>
<path d="M2878 2160 c-2 -59 0 -80 10 -80 7 0 12 14 12 35 l0 35 55 0 55 0 0
-35 c0 -24 5 -35 15 -35 12 0 15 16 15 81 0 60 -3 80 -12 77 -7 -3 -14 -19
-16 -36 -3 -32 -4 -32 -58 -32 l-54 0 0 35 c0 19 -4 35 -9 35 -5 0 -11 -36
-13 -80z"/>
<path d="M3097 2233 c-4 -3 -7 -39 -7 -80 l0 -73 80 0 c47 0 80 4 80 10 0 6
-28 10 -65 10 -63 0 -65 1 -65 25 0 23 4 25 40 25 22 0 40 5 40 10 0 6 -18 10
-40 10 -36 0 -40 3 -40 25 0 24 3 25 60 25 33 0 60 4 60 10 0 11 -133 14 -143
3z"/>
<path d="M3290 2163 c0 -49 4 -83 10 -83 6 0 10 26 10 58 l0 57 51 -57 c28
-32 55 -58 60 -58 5 0 9 36 9 80 0 47 -4 80 -10 80 -10 0 -14 -40 -10 -87 1
-13 -1 -23 -5 -23 -3 0 -30 26 -60 58 l-54 57 -1 -82z"/>
<path d="M3490 2160 c0 -47 4 -80 10 -80 6 0 10 13 10 29 0 16 7 35 16 42 14
12 21 7 54 -31 49 -57 64 -46 16 13 l-35 43 32 32 c42 43 21 41 -34 -3 l-44
-35 -3 35 c-6 67 -22 34 -22 -45z"/>
<path d="M3695 2228 c-48 -28 -59 -78 -25 -121 25 -32 69 -42 116 -27 63 21
78 100 26 140 -28 22 -85 26 -117 8z m105 -28 c44 -44 10 -105 -58 -103 -25 1
-42 8 -54 23 -24 30 -23 46 7 75 30 31 77 33 105 5z"/>
<path d="M4220 2160 c0 -47 4 -80 10 -80 6 0 10 33 10 80 0 47 -4 80 -10 80
-6 0 -10 -33 -10 -80z"/>
<path d="M4270 2231 c0 -6 15 -11 33 -13 l32 -3 3 -67 c4 -90 22 -88 22 2 l0
70 35 0 c19 0 35 5 35 10 0 6 -33 10 -80 10 -44 0 -80 -4 -80 -9z"/>
<path d="M4456 2165 c-36 -72 -43 -114 -10 -67 11 16 25 22 54 22 29 0 43 -6
54 -22 9 -12 18 -19 22 -15 6 6 -66 157 -76 157 -3 0 -22 -34 -44 -75z m62 0
c11 -24 10 -25 -18 -25 -34 0 -35 2 -18 30 17 26 22 25 36 -5z"/>
<path d="M4620 2160 l0 -80 70 0 c40 0 70 4 70 10 0 6 -27 10 -60 10 l-60 0 0
70 c0 40 -4 70 -10 70 -6 0 -10 -33 -10 -80z"/>
<path d="M4790 2160 c0 -47 4 -80 10 -80 6 0 10 33 10 80 0 47 -4 80 -10 80
-6 0 -10 -33 -10 -80z"/>
<path d="M4870 2161 c0 -66 3 -81 15 -81 13 0 15 13 13 77 -2 50 -7 78 -15 81
-10 3 -13 -17 -13 -77z"/>
<path d="M5800 2230 c0 -5 16 -10 35 -10 l35 0 0 -70 c0 -90 18 -92 22 -2 l3
67 33 3 c64 6 30 22 -48 22 -47 0 -80 -4 -80 -10z"/>
<path d="M5990 2160 l0 -80 80 0 c47 0 80 4 80 10 0 6 -30 10 -70 10 -68 0
-70 1 -70 25 0 22 4 25 39 25 55 0 61 18 9 22 -35 2 -43 7 -43 23 0 18 8 20
63 23 88 4 78 22 -13 22 l-75 0 0 -80z"/>
<path d="M6184 2226 c-10 -26 1 -139 14 -144 8 -2 12 8 12 32 0 34 2 36 34 36
28 0 38 -6 56 -35 12 -19 28 -35 36 -35 12 0 11 6 -6 30 l-21 29 21 21 c25 25
25 35 0 60 -16 16 -33 20 -80 20 -42 0 -62 -4 -66 -14z m125 -15 c8 -5 11 -16
8 -25 -5 -12 -20 -16 -57 -16 -47 0 -50 2 -50 25 0 23 4 25 43 25 23 0 48 -4
56 -9z"/>
<path d="M6370 2232 c0 -5 14 -21 30 -37 24 -23 30 -37 30 -72 0 -32 4 -43 15
-43 11 0 15 11 15 42 0 34 6 49 32 75 41 43 28 56 -15 15 l-33 -32 -29 30
c-28 30 -45 38 -45 22z"/>
<path d="M6560 2162 c0 -48 4 -82 10 -82 6 0 10 23 10 50 0 28 4 50 9 50 5 0
28 -22 51 -50 23 -27 46 -50 51 -50 5 0 9 36 9 80 0 47 -4 80 -10 80 -6 0 -10
-26 -10 -57 l0 -57 -60 59 -60 59 0 -82z"/>
<path d="M6771 2161 c-30 -58 -37 -81 -27 -81 8 0 18 9 21 20 10 30 87 29 108
-2 8 -13 18 -20 22 -16 6 6 -55 130 -75 152 -5 5 -27 -28 -49 -73z m64 2 c5
-20 3 -23 -19 -23 -30 0 -30 0 -14 35 12 27 22 24 33 -12z"/>
</g>
</svg>
